<svg id="Capa_1" data-name="Capa 1" xmlns="http://www.w3.org/2000/svg" width="2186" height="1024.17" viewBox="0 0 2186 1024.17">
  <title>Bembos logo con fondo 2014</title>
  <g>
    <rect width="2186" height="1024.17" style="fill: #00187c"/>
    <g>
      <path d="M1626.34-1174.44q-5.69,30.62-12.66,60.9c-19,.17-334.39,29.2-381.51,32.47,2.67-20.16,8.36-39.8,12.15-59.78C1282.38-1145,1537.18-1167.21,1626.34-1174.44Z" transform="translate(-249.46 1383.58)" style="fill: #ea002d"/>
      <path d="M2059.27-1080.12c28.25-23.09,65.29-33.59,101.56-33.34,17.4.34,34.89-1.21,52.11,1.72-4,24.72-10,49.1-15,73.74-1.64,7.41-3.1,15-5.25,22.31-16.37-9.73-37-11.63-55.13-6.12a38.47,38.47,0,0,0-26.36,27.74c-2.41,7.41-1.12,16.11,4,22.14,11.89,14.47,30.15,21.62,43,35.06,16.8,15.25,26.79,37.82,26.27,60.56,1.29,30.15-6.12,61.07-22.65,86.48-19.81,29.89-53.15,48.15-87.43,56.16-34,8.87-70,8.27-104.32,1.12,6.81-30.84,12.92-61.85,19.73-92.69,17.92,3,36.78,7.15,54.61,1.38,16.28-5.25,28.77-23.34,24.12-40.49-5.77-14.21-19.73-22.31-31-31.79-10.25-7.58-18.43-17.23-26.88-26.62C1997.77-853,1953-791.64,1895.44-751.41a254.77,254.77,0,0,1-105.69,45c-37,6.12-76.75,1.38-108.88-18.78-25.41-15.51-43.67-40.83-52.72-69-20.16,52.89-70.72,91-125.59,101.56-25,4.65-50.48,5.17-75.63,8-48.93,3.88-97.85,8.53-146.78,12.49-5.77-46.95-12.15-93.89-17.66-140.84-22.48,25-79.68,94.93-86.83,104.14-5.86-8-41.61-74.34-55.65-98.2-.6.09-48.32,103.45-70.72,155.22-50.56,5-263.07,23.86-318.8,27.65C735-648.82,741.59-673.11,745-698c-20.67,36.09-55.65,63.31-95.18,76.06-17.57,6-36.09,8.7-54.53,10-41.17,3.27-82.18,7.75-123.35,10.25,7.32-41.43,73.39-349,76.58-360.84,19.73-2.07,39.54-3.19,59.35-5.25,32.73-2.24,66.24-8.53,98.63.09,19,4.48,37.56,16,45.57,34.54,7,14.13,5.77,30.32,5.08,45.57-4.22,29.12-23.09,57-51.17,67.79,14.39,2.93,29.29,8.27,39,19.9,9.13,10.16,12.23,23.95,14.64,37,16-74,31.18-148.16,47.38-222.07,67.1-6.2,224.83-20.16,236.54-20.42-5.6,31.79-13.78,63.05-19.3,94.75-5.77,1.46-100.09,9.22-141.36,12.83-3.45,14.9-7.58,29.8-9.22,45.05,37.38-3.1,74.77-7.24,112.24-9.73-4.57,24.89-16.19,79.59-19,79.59-37,4-74,6.29-110.95,9.91-2.58,14.82-6.37,29.46-8.79,44.36,46.52-3.45,92.94-7.84,139.37-11.72,2.67-.09,3.27-3.36,4.48-5.17,30.41-69.86,61.33-139.55,91.65-209.49,9.13-19.64,17.06-39.8,26.53-59.26,23.6,42.9,75.54,137.22,78.21,141.36,41.78-49.19,130.42-159.19,136.1-161.6,13.44,86.4,28,172.62,41.61,258.94,1.29-2.41,39-178.14,57.11-263.33,33.42-3.1,66.93-5.77,100.35-9,27-1.72,55.9-1.21,80,12.58,14.9,8.1,25.07,23.52,28,40.14,3.7,21.45.26,44.28-10.34,63.4-9.3,15.94-23.43,29.55-41.17,35.4,9.13,1.72,18.26,4.22,26.36,8.79,7.49,4.13,13.09,10.85,19,16.88,10.25-58.32,44.28-110.52,88.12-149.45,27.82-25,60.47-44.71,95.87-56.77,32-10.94,66.93-15.33,100.27-8.36,32.22,6.89,63,24.89,81.32,52.72a138.41,138.41,0,0,1,15.59,31.61C2016.46-1031.19,2033.6-1060,2059.27-1080.12Zm-234,91.74c-46.26,10.94-85.19,48.15-99.06,93.63-5.43,19.21-5.86,40.92,3.53,59,7.92,16.62,24.55,28.08,42.21,32.13,22.91,4.82,46.69-1,67-11.8s37.64-26.79,51.08-45.4c15.16-21.53,25.07-48.32,21-74.86-2.93-22.91-19.38-43.93-41.52-50.91C1855.38-991.65,1839.88-991.57,1825.32-988.38Zm-325.61,21.45c-4.22,18.52-8.53,37.13-11.54,56,15.51-.52,32.56-1.29,45.31-11.2,10.34-8.61,16.11-23.26,12.75-36.52-2.93-5.86-9.39-9.39-15.76-9.91C1520.21-969.69,1509.87-968.05,1499.71-966.93ZM625.48-890.53c-3.27,18.86-8.44,37.3-11.63,56.16,13.35-.78,27.48-1.12,39.62-7.49,12-6.2,19-19.55,19.73-32.65.52-7.92-5.08-15.76-13-17.06C648.73-893.54,636.93-892,625.48-890.53Zm845.72,59.61c-5.08,21.28-10,42.64-14,64.17,14.21-1.46,29.37-.43,42.38-7.15,14.3-6.72,23.69-21.88,24.89-37.47a18.57,18.57,0,0,0-12.58-19.47C1498.68-835.22,1484.72-831.61,1471.2-830.92ZM596.53-753.74c-4.74,21-9.22,42.21-13,63.49,11.72-1.12,23.69-.95,35.06-4.39C639.43-700.5,654.51-723.76,649-745c-5.43-10.85-19.3-12.15-30.06-11.37C611.52-755.63,603.42-756,596.53-753.74Z" transform="translate(-249.46 1383.58)" style="fill: #fff"/>
      <path d="M1954.53-660.27c1.46,5.6-.78,11.2-2,16.62-3.62,14-5.69,28.34-8.79,42.47-12.23,3.27-372,32.47-382.55,32.65,2.07-19.73,7.84-38.94,11.72-58.4C1593.43-630,1934.54-660.71,1954.53-660.27Z" transform="translate(-249.46 1383.58)" style="fill: #ffb600"/>
    </g>
  </g>
</svg>
